<?xml version="1.0" encoding="UTF-8" standalone="no"?>
<!-- Created with Inkscape (http://www.inkscape.org/) -->

<svg
   xmlns:dc="http://purl.org/dc/elements/1.1/"
   xmlns:cc="http://creativecommons.org/ns#"
   xmlns:rdf="http://www.w3.org/1999/02/22-rdf-syntax-ns#"
   xmlns:svg="http://www.w3.org/2000/svg"
   xmlns="http://www.w3.org/2000/svg"
   xmlns:sodipodi="http://sodipodi.sourceforge.net/DTD/sodipodi-0.dtd"
   xmlns:inkscape="http://www.inkscape.org/namespaces/inkscape"
   width="520.0741"
   height="520.9032"
   id="svg2"
   version="1.1"
   inkscape:version="0.48.2 r9819"
   sodipodi:docname="United States Conference of Catholic Bishops.svg"
   inkscape:export-filename="C:\Users\Jonathan\Documents\Random\SVG\Finished\United States Conference of Catholic Bishops.png"
   inkscape:export-xdpi="90"
   inkscape:export-ydpi="90">
  <defs
     id="defs4">
    <path
       sodipodi:type="arc"
       style="font-size:40px;font-style:normal;font-variant:normal;font-weight:normal;font-stretch:normal;text-align:start;line-height:125%;letter-spacing:0px;word-spacing:0px;writing-mode:lr-tb;text-anchor:start;fill:#00ff00;fill-opacity:1;stroke:none;font-family:Copperplate Gothic Light;-inkscape-font-specification:'Copperplate Gothic Light,'"
       id="path6721-7-5"
       sodipodi:cx="418.57144"
       sodipodi:cy="371.19302"
       sodipodi:rx="222.85715"
       sodipodi:ry="200"
       d="m 641.42859,371.19302 a 222.85715,200 0 1 1 -445.7143,0 222.85715,200 0 1 1 445.7143,0 z"
       transform="matrix(0,0.04822453,-0.0537359,0,295.63018,252.3854)" />
  </defs>
  <sodipodi:namedview
     id="base"
     pagecolor="#ffffff"
     bordercolor="#666666"
     borderopacity="1.0"
     inkscape:pageopacity="0.0"
     inkscape:pageshadow="2"
     inkscape:zoom="0.7"
     inkscape:cx="371.2161"
     inkscape:cy="134.92345"
     inkscape:document-units="px"
     inkscape:current-layer="flowRoot2985"
     showgrid="false"
     fit-margin-top="0"
     fit-margin-left="0"
     fit-margin-right="0"
     fit-margin-bottom="0"
     inkscape:window-width="1366"
     inkscape:window-height="716"
     inkscape:window-x="-8"
     inkscape:window-y="-8"
     inkscape:window-maximized="1" />
  <metadata
     id="metadata7">
    <rdf:RDF>
      <cc:Work
         rdf:about="">
        <dc:format>image/svg+xml</dc:format>
        <dc:type
           rdf:resource="http://purl.org/dc/dcmitype/StillImage" />
        <dc:title />
      </cc:Work>
    </rdf:RDF>
  </metadata>
  <g
     inkscape:label="Layer 1"
     inkscape:groupmode="layer"
     id="layer1"
     transform="translate(254.50942,-792.89025)">
    <g
       id="g6434">
      <g
         id="g6423">
        <g
           id="g6413">
          <g
             id="g6404">
            <g
               id="g6396">
              <g
                 id="flowRoot2985"
                 style="font-size:40px;font-style:normal;font-variant:normal;font-weight:normal;font-stretch:normal;text-align:start;line-height:125%;letter-spacing:0px;word-spacing:0px;writing-mode:lr-tb;text-anchor:start;fill:#0000ff;fill-opacity:1;stroke:#000080;font-family:Copperplate Gothic Light;-inkscape-font-specification:'Copperplate Gothic Light,'"
                 transform="matrix(20.935723,0,0,20.935723,-5766.0749,-4653.6279)">
                <path
                   inkscape:connector-curvature="0"
                   style="font-size:40px;font-style:normal;font-variant:normal;font-weight:normal;font-stretch:normal;text-align:start;line-height:125%;letter-spacing:0px;word-spacing:0px;writing-mode:lr-tb;text-anchor:start;fill:#ffffff;fill-opacity:1;stroke:none;font-family:Copperplate Gothic Light;-inkscape-font-specification:'Copperplate Gothic Light,'"
                   d="m 285.23684,272.57083 c 0,5.276 -4.27704,9.55305 -9.55305,9.55305 -5.276,0 -9.55305,-4.27705 -9.55305,-9.55305 0,-5.276 4.27705,-9.55305 9.55305,-9.55305 5.27601,0 9.55305,4.27705 9.55305,9.55305 z"
                   id="path6721-1" />
                <path
                   style="opacity:0;fill:#000080;stroke:none"
                   d="m 263.26483,272.57325 c 0,6.8588 5.56017,12.41896 12.41897,12.41896 6.8588,0 12.41896,-5.56016 12.41896,-12.41896 0,-6.8588 -5.56016,-12.41896 -12.41896,-12.41896 -6.8588,0 -12.41897,5.56016 -12.41897,12.41896 z"
                   id="path7073"
                   inkscape:connector-curvature="0" />
                <path
                   transform="matrix(0,0.04822453,-0.0537359,0,295.63018,252.3854)"
                   style="opacity:0;fill:#00ff00;stroke:none;font-family:Copperplate Gothic Light;-inkscape-font-specification:'Copperplate Gothic Light,'"
                   d="m 641.42859,371.19302 c 0,110.45695 -99.77654,200 -222.85715,200 -123.0806,0 -222.85715,-89.54305 -222.85715,-200 0,-110.45695 99.77655,-200 222.85715,-200 123.08061,0 222.85715,89.54305 222.85715,200 z"
                   id="path6721-7" />
                <path
                   style="stroke:none;fill:#028d6c;fill-opacity:1"
                   d="M 240.0625 60.9375 C 145.585 70.324236 70.449237 145.46 61.0625 239.9375 L 240.0625 239.9375 L 240.0625 60.9375 z M 280.0625 60.9375 L 280.0625 239.9375 L 459.0625 239.9375 C 449.67462 145.44983 374.55444 70.310906 280.0625 60.9375 z M 61.0625 279.9375 C 70.435907 374.42943 145.57483 449.54962 240.0625 458.9375 L 240.0625 279.9375 L 61.0625 279.9375 z M 280.0625 279.9375 L 280.0625 458.9375 C 374.56458 449.56293 449.68794 374.43958 459.0625 279.9375 L 280.0625 279.9375 z "
                   transform="matrix(0.04776525,0,0,0.04776525,263.26129,260.15429)"
                   id="path6721" />
                <g
                   style="font-size:2.38826227px;line-height:125%;fill:#000000;stroke:none;font-family:Times New Roman;-inkscape-font-specification:'Times New Roman,'"
                   id="text6920">
                  <path
                     d="m 263.50542,274.22146 -0.0426,0.007 -0.0871,-0.55293 0.0426,-0.007 0.009,0.0587 c 0.01,0.0614 0.0428,0.10462 0.0995,0.12954 0.0263,0.0124 0.0829,0.0117 0.16969,-0.002 l 0.63357,-0.0998 c 0.15667,-0.0247 0.28065,-0.0283 0.37194,-0.0108 0.0913,0.0175 0.17502,0.0669 0.25117,0.14814 0.0762,0.0813 0.12657,0.20024 0.15124,0.3569 0.0268,0.17049 0.0177,0.30455 -0.0276,0.40218 -0.0452,0.0976 -0.11485,0.17273 -0.20888,0.22532 -0.0645,0.0353 -0.19079,0.0678 -0.37894,0.0975 l -0.61053,0.0962 c -0.096,0.0151 -0.15688,0.0383 -0.18266,0.0695 -0.0258,0.0312 -0.034,0.0764 -0.0247,0.13552 l 0.009,0.0588 -0.0426,0.007 -0.10632,-0.67504 0.0426,-0.007 0.009,0.0599 c 0.0102,0.0645 0.0378,0.10738 0.0828,0.12862 0.0307,0.0148 0.0898,0.0154 0.17733,0.002 l 0.6808,-0.10722 c 0.0607,-0.01 0.12929,-0.0261 0.20587,-0.0495 0.0766,-0.0235 0.13445,-0.0532 0.17363,-0.0893 0.0392,-0.0361 0.0686,-0.0838 0.0884,-0.14319 0.0198,-0.0594 0.0234,-0.12901 0.0108,-0.20888 -0.0161,-0.10214 -0.0528,-0.19002 -0.10999,-0.26364 -0.0572,-0.0736 -0.12294,-0.11974 -0.1971,-0.13836 -0.0742,-0.0186 -0.19418,-0.0149 -0.36006,0.0113 l -0.63241,0.0996 c -0.0975,0.0154 -0.15689,0.0357 -0.17808,0.0611 -0.0291,0.0353 -0.039,0.0825 -0.0296,0.14161 z"
                     style=""
                     id="path3014" />
                  <path
                     d="m 263.35252,273.42525 0.001,-0.42913 1.18906,-0.96293 -0.91192,-0.003 c -0.0972,-3.1e-4 -0.15785,0.0104 -0.18202,0.0321 -0.0327,0.0287 -0.0492,0.0741 -0.0494,0.13628 l -1.7e-4,0.0548 -0.0432,-1.3e-4 0.002,-0.55042 0.0432,1.4e-4 -1.8e-4,0.056 c -2.1e-4,0.0669 0.0198,0.11435 0.0602,0.14247 0.0248,0.0172 0.0815,0.0259 0.17018,0.0262 l 1.33289,0.004 -1.3e-4,0.042 -1.27676,1.03844 0.97372,0.003 c 0.0972,3.1e-4 0.15785,-0.01 0.18202,-0.0309 0.0328,-0.0294 0.0492,-0.0749 0.0494,-0.13628 l 1.8e-4,-0.056 0.0431,1.4e-4 -0.002,0.55042 -0.0431,-1.4e-4 1.8e-4,-0.0548 c 2.1e-4,-0.0676 -0.0199,-0.11551 -0.0602,-0.14363 -0.0248,-0.0172 -0.0816,-0.0259 -0.17018,-0.0262 l -1.09966,-0.004 c -0.0538,0.0457 -0.0893,0.0804 -0.10646,0.10403 -0.0172,0.0237 -0.0332,0.0584 -0.0481,0.10422 -0.007,0.0225 -0.0107,0.0567 -0.0108,0.10258 z"
                     style=""
                     id="path3016" />
                  <path
                     d="m 265.01113,270.9362 0.0428,0.005 -0.0807,0.67271 -0.0428,-0.005 0.007,-0.0556 c 0.008,-0.0648 -0.005,-0.11419 -0.0398,-0.14807 -0.0225,-0.0215 -0.0808,-0.0379 -0.17497,-0.0492 l -1.01427,-0.12171 c -0.0795,-0.01 -0.13259,-0.0108 -0.15927,-0.004 -0.0202,0.005 -0.0387,0.0192 -0.0555,0.0415 -0.0226,0.0317 -0.0361,0.0661 -0.0406,0.10319 l -0.007,0.0556 -0.0428,-0.005 0.0807,-0.6727 0.0428,0.005 -0.007,0.0567 c -0.008,0.0641 0.006,0.11304 0.0399,0.14691 0.0224,0.0223 0.0807,0.039 0.17484,0.0503 l 1.01426,0.12172 c 0.0795,0.01 0.1326,0.0108 0.15927,0.004 0.0202,-0.005 0.0388,-0.0196 0.0556,-0.0427 0.0225,-0.031 0.036,-0.065 0.0404,-0.10202 z"
                     style=""
                     id="path3018" />
                  <path
                     d="m 263.81061,269.17756 0.3654,0.0656 -0.01,0.0432 c -0.0656,-0.006 -0.11363,-0.005 -0.14421,0.003 -0.0493,0.0134 -0.0889,0.0373 -0.11864,0.0716 -0.0298,0.0343 -0.0519,0.0832 -0.0665,0.14689 l -0.0496,0.21713 1.17773,0.26931 c 0.0947,0.0217 0.15618,0.0249 0.18436,0.01 0.0384,-0.0215 0.0645,-0.0622 0.0782,-0.12209 l 0.0122,-0.0534 0.0421,0.01 -0.14947,0.65366 -0.0421,-0.01 0.0125,-0.0546 c 0.0149,-0.0652 0.006,-0.11592 -0.0274,-0.15221 -0.0204,-0.0222 -0.0739,-0.0432 -0.16026,-0.063 l -1.17772,-0.26931 -0.0424,0.18529 c -0.0165,0.072 -0.0229,0.12437 -0.0192,0.15711 0.005,0.0427 0.0253,0.0828 0.0598,0.12015 0.0345,0.0374 0.086,0.0667 0.15453,0.088 l -0.01,0.0432 -0.35735,-0.10085 z"
                     style=""
                     id="path3020" />
                  <path
                     d="m 264.14848,268.45585 0.58462,0.22116 0.12295,-0.32504 c 0.0319,-0.0843 0.0405,-0.14551 0.0258,-0.1835 -0.0191,-0.0505 -0.0701,-0.0938 -0.15276,-0.1301 l 0.0153,-0.0404 0.51482,0.19475 -0.0153,0.0404 c -0.0758,-0.017 -0.12586,-0.0243 -0.15007,-0.0219 -0.0304,0.003 -0.0585,0.0174 -0.0843,0.0417 -0.0258,0.0243 -0.0504,0.0674 -0.0738,0.12917 l -0.12295,0.32504 0.48755,0.18443 c 0.0654,0.0247 0.10635,0.0369 0.12273,0.0364 0.0164,-4.5e-4 0.0315,-0.006 0.0454,-0.0177 0.0139,-0.0114 0.0285,-0.0374 0.0439,-0.0781 l 0.0949,-0.25086 c 0.0316,-0.0836 0.0488,-0.14654 0.0514,-0.18875 0.003,-0.0422 -0.006,-0.0872 -0.0275,-0.13507 -0.028,-0.0621 -0.0786,-0.13402 -0.15156,-0.21567 l 0.0165,-0.0436 0.32257,0.2679 -0.43116,1.13979 -0.0404,-0.0153 0.0198,-0.0524 c 0.0132,-0.0349 0.0174,-0.0711 0.0125,-0.10875 -0.003,-0.0277 -0.0143,-0.0501 -0.0344,-0.0673 -0.0201,-0.0172 -0.0661,-0.0394 -0.13814,-0.0666 l -0.96092,-0.3635 c -0.0938,-0.0355 -0.15518,-0.0479 -0.18415,-0.0372 -0.039,0.0152 -0.07,0.0533 -0.0931,0.11438 l -0.0198,0.0523 -0.0404,-0.0153 0.43117,-1.1398 0.33013,0.10618 -0.0161,0.0425 c -0.0836,-0.0142 -0.14342,-0.0175 -0.17953,-0.01 -0.0361,0.008 -0.0687,0.0266 -0.0977,0.0572 -0.0219,0.025 -0.0468,0.0742 -0.0745,0.1476 z"
                     style=""
                     id="path3022" />
                  <path
                     d="m 265.89913,268.04364 -0.0377,-0.0211 0.0291,-0.0519 c 0.0327,-0.0583 0.0372,-0.11015 0.0136,-0.15547 -0.014,-0.0275 -0.06,-0.063 -0.13804,-0.10672 l -0.89128,-0.49917 c -0.0861,-0.0482 -0.14538,-0.069 -0.17772,-0.0621 -0.0447,0.01 -0.0816,0.0407 -0.11087,0.0929 l -0.0291,0.0519 -0.0376,-0.0211 0.31455,-0.56163 c 0.11549,-0.2062 0.22674,-0.34995 0.33375,-0.43124 0.10702,-0.0813 0.23346,-0.12409 0.37932,-0.12839 0.14586,-0.004 0.29036,0.0336 0.43348,0.1138 0.19195,0.10751 0.3197,0.25568 0.38323,0.44453 0.0705,0.21145 0.0307,0.45113 -0.11936,0.71906 z m 0.12081,-0.44959 c 0.0672,-0.0755 0.1172,-0.14242 0.14987,-0.20076 0.0881,-0.15736 0.10598,-0.31889 0.0535,-0.48459 -0.0524,-0.1657 -0.17328,-0.30155 -0.36252,-0.40754 -0.1906,-0.10675 -0.3699,-0.139 -0.53791,-0.0968 -0.16801,0.0422 -0.2976,0.14475 -0.38877,0.30754 -0.0342,0.0611 -0.0633,0.13608 -0.0873,0.2251 z"
                     style=""
                     id="path3024" />
                  <path
                     d="m 266.5658,264.20827 0.41555,0.35559 -0.0281,0.0328 c -0.0888,-0.0576 -0.16864,-0.0929 -0.23939,-0.10586 -0.0708,-0.013 -0.14176,-0.006 -0.21299,0.0211 -0.0712,0.027 -0.1301,0.0677 -0.1766,0.12207 -0.0526,0.0614 -0.0773,0.12828 -0.0742,0.20054 0.003,0.0723 0.0286,0.12887 0.0765,0.16981 0.0366,0.0313 0.0809,0.0472 0.13273,0.0476 0.0756,0.001 0.20926,-0.0353 0.40087,-0.10974 0.15628,-0.0607 0.26809,-0.0978 0.33541,-0.11126 0.0673,-0.0135 0.13232,-0.0126 0.19498,0.003 0.0627,0.0153 0.11792,0.0434 0.16577,0.0843 0.091,0.0778 0.13917,0.18024 0.14463,0.30718 0.005,0.12695 -0.0393,0.24594 -0.13435,0.35699 -0.0298,0.0349 -0.0605,0.0654 -0.0921,0.0915 -0.0186,0.0158 -0.0619,0.0445 -0.12977,0.0862 -0.0679,0.0417 -0.1084,0.0702 -0.12154,0.0855 -0.0126,0.0148 -0.0182,0.0302 -0.0167,0.0464 0.002,0.0161 0.0144,0.0382 0.0386,0.0661 l -0.0281,0.0328 -0.412,-0.35256 0.0281,-0.0328 c 0.0994,0.0584 0.18161,0.093 0.24667,0.10364 0.0651,0.0107 0.13465,0.001 0.20874,-0.0278 0.0741,-0.0292 0.13844,-0.0757 0.19303,-0.13948 0.0632,-0.0738 0.0936,-0.14885 0.0913,-0.22503 -0.002,-0.0762 -0.0301,-0.13703 -0.0833,-0.18252 -0.0295,-0.0253 -0.0663,-0.0427 -0.11034,-0.0522 -0.044,-0.01 -0.0937,-0.008 -0.14899,0.004 -0.0374,0.008 -0.12893,0.0386 -0.27447,0.0921 -0.14554,0.0535 -0.25402,0.0873 -0.32543,0.10139 -0.0714,0.0141 -0.13739,0.0147 -0.19795,0.002 -0.0606,-0.0129 -0.11564,-0.0406 -0.16526,-0.0831 -0.0862,-0.0738 -0.13221,-0.17043 -0.13791,-0.28992 -0.006,-0.11948 0.0352,-0.23031 0.12261,-0.3325 0.0546,-0.0638 0.12812,-0.11803 0.22059,-0.16272 0.0431,-0.0204 0.0704,-0.0374 0.082,-0.051 0.0131,-0.0153 0.0193,-0.0318 0.0185,-0.0494 -8.2e-4,-0.0176 -0.0126,-0.0412 -0.0353,-0.0709 z"
                     style=""
                     id="path3026" />
                  <path
                     d="m 267.91233,262.97773 0.26138,0.26363 -0.0329,0.0297 c -0.0501,-0.0428 -0.09,-0.0696 -0.11971,-0.0805 -0.0481,-0.0173 -0.0942,-0.0205 -0.13822,-0.01 -0.0441,0.011 -0.0903,0.0383 -0.13881,0.082 l -0.16539,0.14919 0.80923,0.89706 c 0.0651,0.0722 0.1135,0.11015 0.14523,0.11399 0.0438,0.004 0.0885,-0.0139 0.13412,-0.055 l 0.0407,-0.0367 0.0289,0.032 -0.49789,0.44914 -0.0289,-0.032 0.0416,-0.0375 c 0.0497,-0.0448 0.0713,-0.0916 0.065,-0.14032 -0.004,-0.0299 -0.0356,-0.0778 -0.095,-0.14361 l -0.80923,-0.89706 -0.14114,0.12732 c -0.0548,0.0495 -0.0901,0.0887 -0.10596,0.11757 -0.0201,0.038 -0.0268,0.0823 -0.02,0.13273 0.007,0.0504 0.0321,0.10404 0.0759,0.16079 l -0.0329,0.0297 -0.23454,-0.28785 z"
                     style=""
                     id="path3028" />
                  <path
                     d="m 269.643,263.04432 -0.50997,0.33875 0.0487,0.26723 c 0.012,0.0658 0.0263,0.11131 0.0431,0.13656 0.0133,0.0201 0.0346,0.0314 0.0638,0.0339 0.0292,0.003 0.0771,-0.015 0.14353,-0.0526 l 0.0239,0.0359 -0.41478,0.27551 -0.0239,-0.0359 c 0.0486,-0.0463 0.0758,-0.0826 0.0817,-0.10886 0.0124,-0.053 0.007,-0.14046 -0.0161,-0.26233 l -0.25673,-1.39183 0.034,-0.0226 1.18631,0.79116 c 0.0954,0.0636 0.16689,0.0984 0.21442,0.10467 0.0475,0.006 0.0992,-0.007 0.15515,-0.0394 l 0.0239,0.0359 -0.51969,0.3452 -0.0239,-0.0359 c 0.0507,-0.0374 0.0804,-0.0697 0.0889,-0.0969 0.009,-0.0272 0.006,-0.0514 -0.008,-0.0728 -0.0189,-0.0285 -0.0618,-0.0649 -0.12854,-0.10921 z m -0.0749,-0.0538 -0.577,-0.38391 0.12434,0.68459 z"
                     style=""
                     id="path3030" />
                  <path
                     d="m 271.05168,261.12392 0.17308,0.32843 -0.0401,0.0188 c -0.0354,-0.0555 -0.0658,-0.0928 -0.091,-0.1119 -0.041,-0.0306 -0.0841,-0.0471 -0.12941,-0.0495 -0.0453,-0.002 -0.0976,0.0103 -0.1567,0.038 l -0.20172,0.0944 0.51227,1.09414 c 0.0412,0.088 0.0764,0.13848 0.10565,0.1514 0.0406,0.017 0.0887,0.0125 0.14433,-0.0135 l 0.0496,-0.0232 0.0183,0.0391 -0.60727,0.28432 -0.0183,-0.0391 0.0507,-0.0237 c 0.0605,-0.0284 0.0949,-0.0668 0.10313,-0.11524 0.005,-0.0298 -0.0114,-0.0848 -0.049,-0.16507 l -0.51227,-1.09415 -0.17214,0.0806 c -0.0669,0.0313 -0.11211,0.0585 -0.13566,0.0815 -0.0303,0.0305 -0.0496,0.0709 -0.0579,0.12111 -0.008,0.0502 3.3e-4,0.10887 0.0257,0.17595 l -0.0401,0.0188 -0.14034,-0.34376 z"
                     style=""
                     id="path3032" />
                  <path
                     d="m 271.82835,260.94621 0.18539,0.59693 0.33187,-0.10307 c 0.0861,-0.0267 0.13963,-0.0576 0.16051,-0.0926 0.028,-0.0461 0.0309,-0.11296 0.009,-0.20047 l 0.0412,-0.0128 0.16325,0.52565 -0.0412,0.0128 c -0.0332,-0.0703 -0.0583,-0.11419 -0.0751,-0.13175 -0.0214,-0.0218 -0.0497,-0.0354 -0.0847,-0.0408 -0.0351,-0.005 -0.0841,0.002 -0.14724,0.0213 l -0.33188,0.10307 0.15461,0.49781 c 0.0208,0.0668 0.0364,0.10655 0.0468,0.11918 0.0104,0.0126 0.0244,0.0209 0.0419,0.0248 0.0175,0.004 0.047,-5.7e-4 0.0886,-0.0135 l 0.25615,-0.0795 c 0.0854,-0.0265 0.14553,-0.0517 0.18045,-0.0756 0.0349,-0.0239 0.0648,-0.0588 0.0896,-0.10475 0.0317,-0.0603 0.0573,-0.14439 0.0768,-0.25218 l 0.0446,-0.0138 -0.0127,0.41912 -1.16379,0.36144 -0.0128,-0.0412 0.0535,-0.0166 c 0.0356,-0.0111 0.0668,-0.0301 0.0934,-0.0571 0.0201,-0.0193 0.0307,-0.0421 0.0318,-0.0685 0.001,-0.0264 -0.01,-0.0764 -0.0325,-0.14987 l -0.30471,-0.98114 c -0.0298,-0.0958 -0.0577,-0.15181 -0.084,-0.16809 -0.036,-0.0214 -0.0851,-0.0224 -0.14748,-0.003 l -0.0535,0.0166 -0.0128,-0.0412 1.16378,-0.36144 0.11943,0.32557 -0.0434,0.0135 c -0.0403,-0.0746 -0.0745,-0.1238 -0.10263,-0.14762 -0.0282,-0.0238 -0.0632,-0.0378 -0.10518,-0.0418 -0.0332,-0.002 -0.0872,0.009 -0.16222,0.0321 z"
                     style=""
                     id="path3034" />
                  <path
                     d="m 273.99692,260.31289 0.0928,0.53898 -0.0425,0.007 c -0.0316,-0.10106 -0.0705,-0.17916 -0.11668,-0.23432 -0.0462,-0.0552 -0.10532,-0.0951 -0.17741,-0.11973 -0.0721,-0.0247 -0.14338,-0.0309 -0.21386,-0.0188 -0.0797,0.0137 -0.14138,0.0494 -0.1851,0.10702 -0.0437,0.0576 -0.0602,0.11746 -0.0496,0.17952 0.008,0.0475 0.0321,0.0879 0.0718,0.12135 0.0574,0.0493 0.1836,0.10644 0.37861,0.17146 0.15903,0.0531 0.26876,0.0959 0.3292,0.12849 0.0604,0.0326 0.1099,0.0747 0.1484,0.1265 0.0385,0.0517 0.0631,0.10865 0.0738,0.17071 0.0203,0.11798 -0.008,0.22757 -0.0848,0.32877 -0.0768,0.10119 -0.18728,0.16419 -0.33132,0.189 -0.0452,0.008 -0.0883,0.0117 -0.12934,0.0116 -0.0244,2.6e-4 -0.076,-0.005 -0.1549,-0.0165 -0.0789,-0.0113 -0.12825,-0.0152 -0.14817,-0.0118 -0.0191,0.003 -0.0333,0.0117 -0.0424,0.0251 -0.009,0.0134 -0.0133,0.0386 -0.0124,0.0755 l -0.0425,0.007 -0.092,-0.53439 0.0425,-0.007 c 0.0392,0.10843 0.0804,0.18751 0.1237,0.23725 0.0433,0.0497 0.10275,0.087 0.17842,0.11186 0.0757,0.0248 0.15487,0.0301 0.23762,0.0159 0.0958,-0.0165 0.16707,-0.0548 0.21391,-0.11493 0.0468,-0.0601 0.0643,-0.12468 0.0524,-0.19363 -0.007,-0.0383 -0.0238,-0.0752 -0.0516,-0.11063 -0.0278,-0.0354 -0.0668,-0.0662 -0.11707,-0.0923 -0.0338,-0.0178 -0.12384,-0.0526 -0.27002,-0.10436 -0.14617,-0.0517 -0.25124,-0.095 -0.31521,-0.12972 -0.064,-0.0347 -0.11512,-0.0764 -0.15347,-0.12503 -0.0383,-0.0486 -0.0631,-0.10511 -0.0741,-0.16946 -0.0193,-0.11186 0.007,-0.21559 0.0789,-0.3112 0.0719,-0.0956 0.1741,-0.15482 0.30664,-0.17765 0.0827,-0.0143 0.17397,-0.009 0.27367,0.0156 0.0462,0.0118 0.0781,0.0161 0.0957,0.0131 0.0199,-0.003 0.0352,-0.0122 0.0458,-0.0262 0.0106,-0.014 0.0166,-0.0397 0.0181,-0.0771 z"
                     style=""
                     id="path3036" />
                  <path
                     d="m 276.57009,260.2212 0.0256,0.5382 -0.0361,-7.1e-4 c -0.045,-0.16185 -0.11154,-0.27901 -0.19954,-0.3515 -0.088,-0.0725 -0.19457,-0.10997 -0.31971,-0.11243 -0.10493,-0.002 -0.20028,0.0227 -0.28605,0.0743 -0.0858,0.0516 -0.15409,0.13519 -0.20497,0.25082 -0.0509,0.11564 -0.078,0.26012 -0.0814,0.43346 -0.003,0.14302 0.0177,0.26744 0.0615,0.37328 0.0438,0.10583 0.1112,0.18764 0.2022,0.24541 0.091,0.0578 0.19559,0.0878 0.31373,0.0901 0.1026,0.002 0.19359,-0.0182 0.27296,-0.0605 0.0794,-0.0424 0.16736,-0.12793 0.26398,-0.25666 l 0.0357,0.024 c -0.082,0.13913 -0.17657,0.2403 -0.28356,0.30351 -0.107,0.0632 -0.23317,0.0934 -0.37852,0.0905 -0.26194,-0.005 -0.4629,-0.1063 -0.60288,-0.30345 -0.10442,-0.14668 -0.1547,-0.31796 -0.15085,-0.51383 0.003,-0.15779 0.0413,-0.30206 0.11465,-0.4328 0.0733,-0.13075 0.1727,-0.23124 0.2981,-0.30148 0.12541,-0.0702 0.26156,-0.10391 0.40847,-0.10102 0.11426,0.002 0.22641,0.0324 0.33647,0.0906 0.0323,0.0177 0.0555,0.0267 0.0695,0.027 0.021,4.1e-4 0.0394,-0.007 0.0552,-0.0211 0.0206,-0.0206 0.0356,-0.0494 0.0449,-0.0866 z"
                     style=""
                     id="path3038" />
                  <path
                     d="m 277.83877,260.39361 c 0.20217,0.0354 0.3639,0.14285 0.48519,0.32234 0.12129,0.17948 0.16182,0.38409 0.12159,0.61382 -0.0414,0.23663 -0.1505,0.41998 -0.32718,0.55005 -0.17668,0.13006 -0.37108,0.17653 -0.5832,0.13938 -0.21442,-0.0376 -0.38123,-0.14529 -0.50042,-0.32322 -0.1192,-0.17794 -0.15761,-0.3879 -0.11523,-0.62988 0.0433,-0.24735 0.16288,-0.43438 0.35871,-0.5611 0.17,-0.10993 0.35685,-0.14706 0.56054,-0.11139 z m -0.0365,0.08 c -0.13938,-0.0244 -0.26023,0.008 -0.36257,0.0963 -0.12744,0.11028 -0.21288,0.28947 -0.25633,0.53758 -0.0445,0.25424 -0.0244,0.45942 0.0603,0.61553 0.0652,0.11877 0.16639,0.19015 0.30346,0.21415 0.14626,0.0256 0.27706,-0.0103 0.39238,-0.10769 0.11532,-0.0974 0.1945,-0.26901 0.23755,-0.51482 0.0467,-0.26649 0.029,-0.4744 -0.053,-0.62372 -0.066,-0.11889 -0.17327,-0.19135 -0.32183,-0.21737 z"
                     style=""
                     id="path3040" />
                  <path
                     d="m 278.89328,260.63088 0.40529,0.14107 0.52314,1.43786 0.29978,-0.86125 c 0.0319,-0.0918 0.0416,-0.15262 0.029,-0.18254 -0.0164,-0.0403 -0.054,-0.0707 -0.11275,-0.0911 l -0.0518,-0.018 0.0142,-0.0408 0.51983,0.18094 -0.0142,0.0407 -0.0529,-0.0184 c -0.0631,-0.022 -0.11458,-0.0185 -0.1543,0.0105 -0.0243,0.0179 -0.0511,0.0687 -0.0802,0.15236 l -0.43817,1.25882 -0.0396,-0.0138 -0.56598,-1.54537 -0.3201,0.91962 c -0.0319,0.0918 -0.042,0.15249 -0.0301,0.18216 0.0172,0.0405 0.0548,0.0709 0.11275,0.0911 l 0.0529,0.0184 -0.0142,0.0408 -0.51983,-0.18094 0.0142,-0.0408 0.0518,0.018 c 0.0639,0.0222 0.11568,0.0189 0.1554,-0.0101 0.0243,-0.0179 0.0511,-0.0687 0.0802,-0.15236 l 0.3615,-1.03856 c -0.0257,-0.0657 -0.0469,-0.11058 -0.0637,-0.13453 -0.0168,-0.0239 -0.0444,-0.0504 -0.0829,-0.0795 -0.019,-0.014 -0.0501,-0.0286 -0.0935,-0.0437 z"
                     style=""
                     id="path3042" />
                  <path
                     d="m 281.15137,261.61337 -0.28587,0.55191 0.25576,0.13248 c 0.0587,0.0304 0.10835,0.0397 0.14903,0.0279 0.0407,-0.0118 0.0854,-0.0536 0.13401,-0.12561 l 0.0383,0.0198 -0.24619,0.47529 -0.0383,-0.0198 c 0.0276,-0.0549 0.0412,-0.0986 0.041,-0.13112 -2.3e-4,-0.0325 -0.009,-0.0613 -0.0262,-0.0864 -0.0172,-0.0251 -0.0493,-0.0498 -0.0962,-0.0741 l -0.25577,-0.13248 -0.22848,0.44112 c -0.0368,0.0711 -0.0567,0.12037 -0.0595,0.1478 -0.002,0.0208 0.005,0.0432 0.0204,0.067 0.0218,0.0323 0.0493,0.057 0.0824,0.0742 l 0.0507,0.0263 -0.0198,0.0383 -0.60265,-0.31216 0.0198,-0.0383 0.0497,0.0257 c 0.058,0.03 0.10885,0.0349 0.15261,0.0147 0.028,-0.0135 0.0638,-0.0624 0.10744,-0.14659 l 0.46984,-0.90708 c 0.0368,-0.0711 0.0567,-0.12037 0.0595,-0.1478 0.002,-0.0208 -0.004,-0.043 -0.0194,-0.0665 -0.0211,-0.0319 -0.0486,-0.0567 -0.0824,-0.0742 l -0.0497,-0.0258 0.0198,-0.0383 1.04481,0.54117 -0.14637,0.31555 -0.0362,-0.0188 c 0.016,-0.0749 0.0201,-0.13384 0.0122,-0.1769 -0.008,-0.0431 -0.0257,-0.0805 -0.0534,-0.11238 -0.0277,-0.0319 -0.0782,-0.0667 -0.15133,-0.10465 z"
                     style=""
                     id="path3044" />
                  <path
                     d="m 282.47756,262.38275 -0.35691,0.51314 0.28529,0.19842 c 0.074,0.0515 0.13127,0.0747 0.1717,0.0697 0.0536,-0.006 0.10807,-0.0451 0.16339,-0.11647 l 0.0354,0.0246 -0.31429,0.45187 -0.0354,-0.0246 c 0.035,-0.0694 0.0543,-0.11614 0.0578,-0.14022 0.004,-0.0303 -0.003,-0.061 -0.0199,-0.0919 -0.0173,-0.031 -0.0531,-0.0653 -0.10731,-0.10305 l -0.28528,-0.19843 -0.29765,0.42793 c -0.04,0.0574 -0.0617,0.0942 -0.0652,0.11016 -0.004,0.016 -0.002,0.0321 0.006,0.0483 0.008,0.0162 0.0294,0.0368 0.0651,0.0616 l 0.22019,0.15315 c 0.0734,0.051 0.13024,0.083 0.17053,0.0959 0.0403,0.0129 0.0862,0.015 0.13769,0.006 0.0671,-0.012 0.14912,-0.0435 0.2461,-0.0945 l 0.0383,0.0266 -0.3384,0.24759 -1.00043,-0.69583 0.0246,-0.0354 0.046,0.032 c 0.0306,0.0213 0.0648,0.0342 0.10243,0.0386 0.0275,0.004 0.0521,-0.002 0.0736,-0.017 0.0215,-0.0153 0.0543,-0.0546 0.0982,-0.11776 l 0.58663,-0.84342 c 0.0573,-0.0823 0.0843,-0.13884 0.081,-0.16953 -0.005,-0.0415 -0.0346,-0.0809 -0.0883,-0.1182 l -0.046,-0.032 0.0246,-0.0354 1.00042,0.69583 -0.1834,0.29432 -0.0373,-0.026 c 0.0341,-0.0776 0.0519,-0.13484 0.0534,-0.17169 0.001,-0.0369 -0.009,-0.0731 -0.0317,-0.10867 -0.0189,-0.0273 -0.0605,-0.0634 -0.125,-0.10825 z"
                     style=""
                     id="path3046" />
                  <path
                     d="m 283.59947,265.25592 -0.30909,-0.28751 0.11161,-0.9059 c -0.0301,-0.0259 -0.0542,-0.0473 -0.0725,-0.0642 -0.007,-0.007 -0.0152,-0.0144 -0.0235,-0.0227 -0.008,-0.008 -0.0167,-0.0169 -0.0253,-0.0259 l -0.31293,0.33642 c -0.0678,0.0729 -0.1019,0.12553 -0.10238,0.158 -0.002,0.0452 0.0191,0.0879 0.0624,0.12812 l 0.0453,0.0421 -0.0294,0.0316 -0.4961,-0.46144 0.0294,-0.0316 0.0435,0.0405 c 0.049,0.0455 0.0988,0.0622 0.14951,0.0499 0.0284,-0.007 0.0733,-0.0428 0.13468,-0.10884 l 0.69575,-0.74798 c 0.0678,-0.0729 0.10189,-0.12553 0.10237,-0.15801 0.001,-0.0457 -0.0203,-0.0889 -0.0641,-0.1297 l -0.0435,-0.0405 0.0294,-0.0316 0.42181,0.39235 c 0.12295,0.11437 0.20527,0.20766 0.24694,0.27986 0.0417,0.0722 0.0605,0.15129 0.0564,0.23725 -0.004,0.086 -0.037,0.16224 -0.099,0.22884 -0.0662,0.0712 -0.14683,0.11134 -0.24194,0.12056 -0.0951,0.009 -0.20139,-0.0206 -0.31885,-0.0895 l -0.0699,0.55454 c -0.0163,0.12711 -0.0165,0.22145 -4.9e-4,0.28303 0.016,0.0616 0.0524,0.12518 0.10922,0.19078 z m -0.26869,-1.35998 c 0.0108,0.0101 0.0201,0.0189 0.0278,0.0266 0.008,0.008 0.0141,0.0139 0.0192,0.0187 0.11044,0.10272 0.21593,0.15625 0.31648,0.16058 0.10054,0.004 0.18523,-0.0305 0.25407,-0.10449 0.0672,-0.0723 0.0993,-0.15212 0.0961,-0.23947 -0.003,-0.0873 -0.042,-0.1657 -0.11659,-0.23506 -0.033,-0.0307 -0.0827,-0.0669 -0.14915,-0.10848 z"
                     style=""
                     id="path3048" />
                  <path
                     d="m 285.06025,264.69603 -0.48593,0.39314 0.21857,0.27017 c 0.0567,0.0701 0.1052,0.10839 0.14542,0.11485 0.0532,0.009 0.11637,-0.0131 0.18941,-0.0662 l 0.0271,0.0335 -0.42791,0.3462 -0.0271,-0.0335 c 0.053,-0.0569 0.0845,-0.0964 0.0946,-0.11854 0.0123,-0.028 0.0145,-0.0593 0.007,-0.0938 -0.008,-0.0346 -0.0327,-0.0775 -0.0743,-0.1289 l -0.21857,-0.27016 -0.40525,0.32786 c -0.0544,0.044 -0.0855,0.0732 -0.0934,0.0876 -0.008,0.0144 -0.0104,0.0304 -0.008,0.0481 0.003,0.0177 0.0179,0.0435 0.0453,0.0773 l 0.1687,0.20851 c 0.0562,0.0695 0.10189,0.11606 0.13699,0.13967 0.0351,0.0236 0.0786,0.0384 0.13046,0.0444 0.0678,0.007 0.15535,-1.9e-4 0.26269,-0.022 l 0.0293,0.0363 -0.39406,0.14331 -0.76648,-0.94739 0.0335,-0.0271 0.0352,0.0435 c 0.0235,0.029 0.0527,0.0509 0.0876,0.0656 0.0253,0.0115 0.0505,0.0129 0.0754,0.004 0.025,-0.009 0.0674,-0.0372 0.1272,-0.0857 l 0.79871,-0.64619 c 0.078,-0.0631 0.11966,-0.10981 0.12508,-0.14019 0.007,-0.0413 -0.0107,-0.0874 -0.0518,-0.13813 l -0.0352,-0.0435 0.0335,-0.0271 0.76648,0.94739 -0.25826,0.23144 -0.0286,-0.0353 c 0.0544,-0.065 0.0874,-0.11501 0.0992,-0.14998 0.0117,-0.035 0.0117,-0.0727 -7e-5,-0.11319 -0.0105,-0.0315 -0.0404,-0.0778 -0.0898,-0.13883 z"
                     style=""
                     id="path3050" />
                  <path
                     d="m 285.85875,265.5504 0.2178,0.36976 -0.53121,1.43489 0.78574,-0.46283 c 0.0837,-0.0493 0.13045,-0.0895 0.14017,-0.12047 0.0135,-0.0414 0.005,-0.0888 -0.027,-0.14241 l -0.0278,-0.0472 0.0372,-0.0219 0.27935,0.47426 -0.0372,0.0219 -0.0284,-0.0482 c -0.0339,-0.0576 -0.0754,-0.0882 -0.12446,-0.0918 -0.0301,-0.002 -0.0834,0.0193 -0.15972,0.0643 l -1.14847,0.6765 -0.0213,-0.0362 0.5681,-1.54459 -0.839,0.49421 c -0.0837,0.0493 -0.13065,0.0891 -0.14076,0.11946 -0.0131,0.042 -0.004,0.0895 0.027,0.14242 l 0.0284,0.0482 -0.0372,0.0219 -0.27936,-0.47425 0.0372,-0.0219 0.0278,0.0472 c 0.0343,0.0583 0.076,0.0892 0.12505,0.0928 0.0301,0.002 0.0833,-0.0193 0.15972,-0.0643 l 0.94751,-0.55813 c 0.0229,-0.0667 0.0358,-0.11467 0.0385,-0.14378 0.003,-0.0291 -0.001,-0.0672 -0.0118,-0.1142 -0.005,-0.023 -0.0198,-0.0542 -0.043,-0.0937 z"
                     style=""
                     id="path3052" />
                  <path
                     d="m 287.41864,268.61337 -0.48648,0.23162 -0.0133,-0.0336 c 0.13185,-0.10409 0.21421,-0.21072 0.24705,-0.31989 0.0328,-0.10918 0.0262,-0.22195 -0.0199,-0.33832 -0.0387,-0.0976 -0.0983,-0.17594 -0.17907,-0.23511 -0.0807,-0.0592 -0.18424,-0.0899 -0.31055,-0.0921 -0.12631,-0.002 -0.27006,0.0286 -0.43123,0.0925 -0.133,0.0527 -0.23983,0.11968 -0.32051,0.20098 -0.0807,0.0813 -0.13007,0.17508 -0.14818,0.28135 -0.0181,0.10626 -0.005,0.21433 0.0381,0.32419 0.0378,0.0954 0.0916,0.17152 0.16134,0.22834 0.0697,0.0568 0.18267,0.10491 0.33874,0.14426 l -0.008,0.0422 c -0.16003,-0.0219 -0.28988,-0.07 -0.38953,-0.1442 -0.0997,-0.0743 -0.17626,-0.17895 -0.22981,-0.31411 -0.0965,-0.24357 -0.0809,-0.46801 0.0468,-0.67331 0.0949,-0.153 0.23345,-0.26558 0.41559,-0.33774 0.14672,-0.0581 0.29455,-0.0787 0.44348,-0.0616 0.14893,0.0171 0.28002,0.0699 0.39327,0.1584 0.11325,0.0885 0.19694,0.20106 0.25106,0.33767 0.0421,0.10625 0.0576,0.22136 0.0465,0.34533 -0.004,0.0367 -0.003,0.0615 0.002,0.0745 0.008,0.0195 0.0213,0.0338 0.0408,0.0428 0.0269,0.0111 0.0594,0.0137 0.0972,0.008 z"
                     style=""
                     id="path3054" />
                  <path
                     d="m 287.53904,269.49819 -0.60801,0.14495 0.0806,0.33804 c 0.0209,0.0877 0.0481,0.14317 0.0816,0.16635 0.0442,0.031 0.11065,0.0384 0.19945,0.022 l 0.01,0.042 -0.53541,0.12764 -0.01,-0.042 c 0.0723,-0.0284 0.11784,-0.0505 0.13649,-0.0661 0.0232,-0.0199 0.0387,-0.0472 0.0464,-0.0818 0.008,-0.0346 0.004,-0.084 -0.0114,-0.14833 l -0.0806,-0.33804 -0.50706,0.12088 c -0.0681,0.0162 -0.10874,0.0291 -0.12205,0.0387 -0.0133,0.01 -0.0225,0.0229 -0.0276,0.0401 -0.005,0.0172 -0.003,0.047 0.008,0.0893 l 0.0622,0.26091 c 0.0207,0.087 0.0418,0.14867 0.0633,0.18511 0.0215,0.0364 0.0543,0.0686 0.0985,0.0964 0.0581,0.0357 0.14022,0.0669 0.24647,0.0935 l 0.0108,0.0454 -0.41732,-0.0408 -0.2826,-1.1854 0.042,-0.01 0.013,0.0544 c 0.009,0.0363 0.0256,0.0686 0.0507,0.097 0.0179,0.0213 0.0399,0.0334 0.0662,0.0364 0.0263,0.003 0.0768,-0.005 0.15171,-0.0224 l 0.99936,-0.23825 c 0.0976,-0.0233 0.15533,-0.0474 0.17333,-0.0725 0.0238,-0.0344 0.0281,-0.0834 0.0129,-0.14694 l -0.013,-0.0544 0.042,-0.01 0.2826,1.1854 -0.33285,0.0973 -0.0105,-0.0442 c 0.0771,-0.0352 0.12852,-0.066 0.15418,-0.0925 0.0256,-0.0265 0.0419,-0.0605 0.0488,-0.10214 0.004,-0.033 -0.003,-0.0876 -0.0211,-0.164 z"
                     style=""
                     id="path3056" />
                  <path
                     d="m 288.04287,272.19768 c 0.006,0.20514 -0.0661,0.38528 -0.21734,0.54043 -0.15119,0.15514 -0.34334,0.23628 -0.57646,0.24343 -0.24012,0.007 -0.44176,-0.0623 -0.60492,-0.20895 -0.16317,-0.14666 -0.24806,-0.32762 -0.25466,-0.54286 -0.007,-0.21758 0.065,-0.40276 0.21513,-0.55553 0.15009,-0.15277 0.34792,-0.23293 0.59347,-0.24046 0.25099,-0.008 0.45837,0.0715 0.62213,0.23759 0.1421,0.1442 0.21631,0.31965 0.22265,0.52635 z m -0.0858,-0.0195 c -0.004,-0.14142 -0.0603,-0.25327 -0.1678,-0.33553 -0.13381,-0.10245 -0.3266,-0.14981 -0.57837,-0.14209 -0.25799,0.008 -0.45483,0.0692 -0.59054,0.18378 -0.10308,0.0879 -0.15249,0.20146 -0.14823,0.34056 0.005,0.14842 0.0662,0.26922 0.18496,0.36242 0.11875,0.0932 0.30284,0.13596 0.55228,0.12831 0.27042,-0.008 0.47043,-0.0677 0.60004,-0.17825 0.10306,-0.0887 0.15228,-0.20845 0.14766,-0.3592 z"
                     style=""
                     id="path3058" />
                  <path
                     d="m 287.87097,273.75126 -0.6178,-0.0682 -0.0316,0.2863 c -0.007,0.0657 0.002,0.11539 0.0275,0.14911 0.0256,0.0337 0.0807,0.0603 0.16541,0.0799 l -0.005,0.0429 -0.53203,-0.0587 0.005,-0.0429 c 0.0611,0.006 0.10683,0.003 0.13708,-0.009 0.0303,-0.0119 0.054,-0.0304 0.0712,-0.0555 0.0172,-0.0251 0.0288,-0.0639 0.0346,-0.11644 l 0.0316,-0.2863 -0.49378,-0.0545 c -0.0796,-0.009 -0.13269,-0.01 -0.1593,-0.002 -0.0202,0.006 -0.0386,0.02 -0.0552,0.0432 -0.0223,0.032 -0.0355,0.0665 -0.0396,0.10357 l -0.006,0.0568 -0.0429,-0.005 0.0745,-0.6746 0.0429,0.005 -0.006,0.0556 c -0.007,0.0649 0.007,0.11414 0.0412,0.14768 0.0227,0.0213 0.0812,0.0371 0.17543,0.0475 l 1.01538,0.11207 c 0.0796,0.009 0.13269,0.01 0.1593,0.002 0.0202,-0.006 0.0385,-0.0196 0.0551,-0.042 0.0222,-0.0312 0.0354,-0.0657 0.0396,-0.10357 l 0.006,-0.0556 0.0429,0.005 -0.12907,1.16954 -0.34708,-0.0231 0.004,-0.0406 c 0.0756,-0.012 0.1321,-0.0294 0.16943,-0.0523 0.0373,-0.0229 0.0659,-0.053 0.0856,-0.0903 0.0198,-0.0373 0.0342,-0.0969 0.0432,-0.17884 z"
                     style=""
                     id="path3060" />
                </g>
                <g
                   style="font-size:2.38826251px;fill:#000000;stroke:none;font-family:Times New Roman;-inkscape-font-specification:Times New Roman"
                   id="text7076">
                  <path
                     d="m 268.11709,280.30789 -0.37359,0.38826 -0.0243,-0.0268 c 0.0867,-0.14389 0.12617,-0.27271 0.11841,-0.38645 -0.008,-0.11375 -0.0537,-0.21694 -0.13788,-0.30958 -0.0706,-0.0777 -0.15407,-0.12998 -0.25046,-0.15689 -0.0964,-0.0269 -0.20409,-0.0191 -0.32308,0.0233 -0.11899,0.0425 -0.24264,0.12197 -0.37095,0.23854 -0.10588,0.0962 -0.18224,0.19655 -0.22907,0.30108 -0.0468,0.10452 -0.06,0.2097 -0.0395,0.31552 0.0205,0.10583 0.0705,0.20247 0.14997,0.28994 0.069,0.0759 0.14616,0.12822 0.23148,0.1568 0.0853,0.0286 0.20792,0.0338 0.36785,0.0156 l 0.007,0.0424 c -0.15748,0.0359 -0.29593,0.0367 -0.41536,0.002 -0.11943,-0.0344 -0.22803,-0.10532 -0.32579,-0.21292 -0.17617,-0.19392 -0.24069,-0.40945 -0.19355,-0.64659 0.0349,-0.17664 0.12483,-0.33084 0.26983,-0.46258 0.11681,-0.10612 0.24791,-0.17743 0.39331,-0.21394 0.14539,-0.0365 0.28668,-0.0333 0.42386,0.01 0.13718,0.0429 0.25518,0.11873 0.35398,0.22748 0.0769,0.0846 0.13194,0.18684 0.16527,0.30676 0.009,0.0357 0.0186,0.0587 0.0281,0.069 0.0141,0.0155 0.0319,0.0241 0.0532,0.0257 0.0291,8.5e-4 0.0604,-0.008 0.0937,-0.0269 z"
                     style=""
                     id="path7087" />
                  <path
                     d="m 268.20122,281.81632 -0.46811,-0.39457 -0.24287,0.12166 c -0.0598,0.0299 -0.0995,0.0565 -0.119,0.0797 -0.0155,0.0184 -0.0204,0.042 -0.0147,0.0708 0.006,0.0288 0.036,0.0698 0.0908,0.12302 l -0.0278,0.033 -0.38074,-0.32092 0.0278,-0.033 c 0.058,0.0337 0.10051,0.0496 0.12739,0.0479 0.0544,-0.003 0.13681,-0.0326 0.24732,-0.0889 l 1.26406,-0.63658 0.0312,0.0263 -0.42691,1.36052 c -0.0343,0.1094 -0.0477,0.18779 -0.0404,0.23516 0.007,0.0474 0.0344,0.0933 0.0813,0.1379 l -0.0278,0.033 -0.47703,-0.40209 0.0278,-0.033 c 0.0501,0.0382 0.0895,0.0576 0.11793,0.0582 0.0285,6.1e-4 0.051,-0.009 0.0675,-0.0285 0.022,-0.0262 0.045,-0.0775 0.0688,-0.154 z m 0.0307,-0.087 0.20678,-0.66148 -0.62229,0.31125 z"
                     style=""
                     id="path7089" />
                  <path
                     d="m 270.36914,282.04329 -0.18619,0.32117 -0.0373,-0.024 c 0.0282,-0.0595 0.0437,-0.10504 0.0464,-0.13657 0.004,-0.051 -0.005,-0.0963 -0.0269,-0.13593 -0.0221,-0.0397 -0.0606,-0.0772 -0.11545,-0.11256 l -0.18721,-0.12066 -0.65451,1.01547 c -0.0527,0.0817 -0.0767,0.13834 -0.0721,0.16997 0.007,0.0435 0.0365,0.0818 0.0881,0.11508 l 0.0461,0.0297 -0.0234,0.0363 -0.5636,-0.36326 0.0234,-0.0363 0.0471,0.0303 c 0.0562,0.0362 0.10701,0.0449 0.15243,0.0261 0.0279,-0.0116 0.0658,-0.0547 0.11381,-0.12921 l 0.6545,-1.01547 -0.15977,-0.10298 c -0.0621,-0.04 -0.10913,-0.0639 -0.14117,-0.0716 -0.042,-0.009 -0.0864,-0.004 -0.13335,0.0153 -0.0469,0.0197 -0.0921,0.0581 -0.13537,0.11531 l -0.0372,-0.024 0.21659,-0.30159 z"
                     style=""
                     id="path7091" />
                  <path
                     d="m 270.38336,282.86872 0.66343,0.31559 0.19437,-0.40859 c 0.0347,-0.073 0.053,-0.12327 0.0549,-0.15078 0.001,-0.0209 -0.006,-0.043 -0.0227,-0.0663 -0.0222,-0.0312 -0.0501,-0.0548 -0.0838,-0.0709 l -0.0505,-0.024 0.0185,-0.039 0.61078,0.29054 -0.0185,0.039 -0.0505,-0.024 c -0.0337,-0.016 -0.0695,-0.0231 -0.10735,-0.0214 -0.0278,5.4e-4 -0.0512,0.0103 -0.0701,0.0293 -0.0189,0.019 -0.0451,0.0636 -0.0785,0.13377 l -0.43833,0.92143 c -0.0344,0.0723 -0.0525,0.12222 -0.0544,0.14973 -0.001,0.0209 0.006,0.0428 0.0216,0.0658 0.0229,0.0316 0.0512,0.0553 0.0849,0.0714 l 0.0505,0.024 -0.0185,0.039 -0.61078,-0.29054 0.0185,-0.039 0.0505,0.024 c 0.0583,0.0277 0.10892,0.0307 0.15196,0.009 0.0282,-0.0141 0.0627,-0.064 0.10348,-0.14965 l 0.20688,-0.43491 -0.66343,-0.3156 -0.20689,0.43492 c -0.0344,0.0723 -0.0525,0.12222 -0.0544,0.14973 -0.001,0.0209 0.006,0.043 0.0227,0.0663 0.0222,0.0312 0.0501,0.0548 0.0838,0.0709 l 0.0516,0.0245 -0.0185,0.039 -0.61184,-0.29105 0.0185,-0.039 0.0505,0.024 c 0.059,0.0281 0.10997,0.0312 0.15302,0.01 0.0275,-0.0145 0.0617,-0.0645 0.10241,-0.15015 l 0.43833,-0.92143 c 0.0347,-0.073 0.053,-0.12328 0.0549,-0.15079 0.001,-0.0209 -0.006,-0.0428 -0.0216,-0.0658 -0.0229,-0.0315 -0.0512,-0.0553 -0.0849,-0.0714 l -0.0505,-0.024 0.0185,-0.039 0.61183,0.29104 -0.0185,0.039 -0.0516,-0.0245 c -0.0337,-0.016 -0.0695,-0.0231 -0.10735,-0.0214 -0.0271,8.9e-4 -0.0503,0.0107 -0.0696,0.0295 -0.0193,0.0188 -0.0456,0.0633 -0.079,0.13352 z"
                     style=""
                     id="path7093" />
                  <path
                     d="m 272.45472,282.88431 c 0.19582,0.0615 0.34216,0.18909 0.43901,0.38286 0.0969,0.19377 0.11035,0.40192 0.0405,0.62444 -0.072,0.2292 -0.20398,0.39676 -0.39612,0.50268 -0.19214,0.10591 -0.39094,0.12663 -0.5964,0.0621 -0.20769,-0.0652 -0.35902,-0.19377 -0.45399,-0.38572 -0.095,-0.19196 -0.10568,-0.40514 -0.0321,-0.63953 0.0752,-0.23959 0.21814,-0.40943 0.42882,-0.50953 0.18288,-0.0868 0.37298,-0.0993 0.57028,-0.0373 z m -0.0466,0.0746 c -0.135,-0.0424 -0.25901,-0.0263 -0.37203,0.0482 -0.14073,0.0927 -0.24882,0.25924 -0.32425,0.49957 -0.0773,0.24626 -0.0841,0.45231 -0.0205,0.61814 0.0492,0.12625 0.14017,0.21022 0.27294,0.25189 0.14167,0.0445 0.27603,0.0259 0.40307,-0.0556 0.12703,-0.0815 0.22792,-0.24135 0.30266,-0.47945 0.081,-0.25813 0.0906,-0.46656 0.0288,-0.6253 -0.0499,-0.12648 -0.14684,-0.21231 -0.29074,-0.25748 z"
                     style=""
                     id="path7095" />
                  <path
                     d="m 274.21223,284.48272 0.0365,0.0147 -0.20795,0.39902 -1.20574,-0.21326 0.008,-0.0425 0.0586,0.0104 c 0.0658,0.0116 0.11671,-0.001 0.15262,-0.0393 0.0204,-0.0216 0.0385,-0.0769 0.0542,-0.16569 l 0.17772,-1.00478 c 0.0172,-0.0972 0.0172,-0.15998 1.4e-4,-0.18827 -0.0239,-0.039 -0.0653,-0.0637 -0.12427,-0.0741 l -0.0586,-0.0104 0.008,-0.0425 0.70507,0.12471 -0.008,0.0425 c -0.0825,-0.0154 -0.14189,-0.018 -0.17804,-0.008 -0.0361,0.0102 -0.0625,0.0265 -0.0791,0.0488 -0.0166,0.0223 -0.0331,0.0798 -0.0494,0.17244 l -0.17305,0.97837 c -0.0112,0.0635 -0.0128,0.10826 -0.005,0.13416 0.006,0.0177 0.0184,0.0321 0.0362,0.0431 0.0178,0.011 0.0768,0.0254 0.17711,0.0432 l 0.11368,0.0201 c 0.11943,0.0211 0.20481,0.0272 0.25616,0.0181 0.0513,-0.009 0.10088,-0.0325 0.14861,-0.0702 0.0477,-0.0377 0.10003,-0.10132 0.1569,-0.19074 z"
                     style=""
                     id="path7097" />
                  <path
                     d="m 274.96629,284.9332 -0.004,0.043 -0.67513,-0.057 0.004,-0.043 0.0558,0.005 c 0.0651,0.005 0.11393,-0.01 0.14657,-0.045 0.0207,-0.0232 0.035,-0.0821 0.043,-0.1766 l 0.0859,-1.01792 c 0.007,-0.0798 0.006,-0.1329 -0.002,-0.15931 -0.006,-0.02 -0.0206,-0.038 -0.0434,-0.054 -0.0325,-0.0215 -0.0674,-0.0338 -0.10456,-0.0369 l -0.0558,-0.005 0.004,-0.043 0.67513,0.057 -0.004,0.043 -0.0569,-0.005 c -0.0643,-0.005 -0.11277,0.01 -0.14541,0.0451 -0.0215,0.0231 -0.0362,0.082 -0.0442,0.1765 l -0.0859,1.01792 c -0.007,0.0798 -0.006,0.13289 0.002,0.15931 0.006,0.02 0.021,0.038 0.0446,0.0541 0.0317,0.0214 0.0662,0.0337 0.10339,0.0368 z"
                     style=""
                     id="path7099" />
                  <path
                     d="m 276.44387,283.36715 0.042,0.53717 -0.0361,3.9e-4 c -0.05,-0.16039 -0.12001,-0.27547 -0.21017,-0.34524 -0.0902,-0.0698 -0.19784,-0.10397 -0.323,-0.10261 -0.10494,0.001 -0.1995,0.0288 -0.28365,0.083 -0.0842,0.0542 -0.14989,0.13983 -0.19721,0.25697 -0.0473,0.11714 -0.07,0.26238 -0.0681,0.43574 0.002,0.14304 0.0258,0.26678 0.0729,0.37123 0.047,0.10445 0.11688,0.18415 0.20961,0.23912 0.0927,0.055 0.19817,0.0818 0.31633,0.0805 0.10262,-0.001 0.19294,-0.0241 0.27098,-0.0688 0.078,-0.0448 0.16338,-0.13298 0.25602,-0.2646 l 0.0364,0.0229 c -0.0778,0.14157 -0.16915,0.24558 -0.27416,0.31203 -0.10501,0.0664 -0.23021,0.10047 -0.37558,0.10205 -0.26197,0.003 -0.46593,-0.0921 -0.61186,-0.28489 -0.10885,-0.14342 -0.16435,-0.31309 -0.16648,-0.50899 -0.002,-0.15781 0.0321,-0.30317 0.10138,-0.4361 0.0693,-0.13292 0.16555,-0.2364 0.28875,-0.31044 0.1232,-0.074 0.25827,-0.11185 0.40519,-0.11345 0.11428,-0.001 0.2273,0.0255 0.33908,0.0803 0.0328,0.0168 0.0562,0.0251 0.0702,0.0249 0.021,-2.2e-4 0.0392,-0.008 0.0546,-0.0228 0.02,-0.0212 0.034,-0.0505 0.0422,-0.0879 z"
                     style=""
                     id="path7101" />
                  <path
                     d="m 278.15084,283.92693 c 0.11204,0.003 0.19955,0.0241 0.26254,0.0644 0.0874,0.0563 0.14064,0.13525 0.15981,0.23685 0.0146,0.0772 0.004,0.15569 -0.0315,0.23558 -0.0356,0.0799 -0.0929,0.14411 -0.17191,0.19265 -0.0791,0.0485 -0.20606,0.0893 -0.381,0.12233 l -0.73339,0.13839 -0.008,-0.0424 0.0584,-0.011 c 0.0649,-0.0122 0.10765,-0.0417 0.12813,-0.0883 0.0125,-0.03 0.0106,-0.0886 -0.006,-0.17572 l -0.18943,-1.00382 c -0.0182,-0.0963 -0.0407,-0.1549 -0.0676,-0.17593 -0.0361,-0.028 -0.0836,-0.0364 -0.14244,-0.0253 l -0.0584,0.011 -0.008,-0.0424 0.67151,-0.12672 c 0.12528,-0.0236 0.22747,-0.0334 0.30656,-0.0294 0.11978,0.006 0.21645,0.0381 0.28999,0.0966 0.0735,0.0585 0.11889,0.13323 0.13604,0.22414 0.0147,0.0779 0.004,0.1521 -0.0316,0.22253 -0.0358,0.0704 -0.0971,0.12928 -0.18386,0.17651 z m -0.61214,0.0514 c 0.0293,2e-5 0.0623,-0.002 0.0991,-0.006 0.0368,-0.004 0.077,-0.0104 0.1205,-0.0186 0.11154,-0.0211 0.19311,-0.0489 0.24472,-0.0836 0.0516,-0.0347 0.0876,-0.0796 0.10805,-0.13491 0.0204,-0.0553 0.0251,-0.11233 0.014,-0.17116 -0.0172,-0.0909 -0.0688,-0.16145 -0.15505,-0.21164 -0.0862,-0.0502 -0.20037,-0.0619 -0.34246,-0.0351 -0.0764,0.0144 -0.14357,0.0358 -0.20151,0.0641 z m 0.14012,0.74256 c 0.0925,0.004 0.18193,-0.002 0.26825,-0.0186 0.13828,-0.0261 0.23783,-0.0771 0.29865,-0.15307 0.0608,-0.076 0.0826,-0.15978 0.0653,-0.25145 -0.0114,-0.0604 -0.0388,-0.11531 -0.0821,-0.16488 -0.0434,-0.0496 -0.10514,-0.0834 -0.18529,-0.10151 -0.0802,-0.0181 -0.17486,-0.0168 -0.28411,0.004 -0.0474,0.009 -0.0877,0.0173 -0.12103,0.0252 -0.0333,0.008 -0.0599,0.0157 -0.0799,0.0234 z"
                     style=""
                     id="path7103" />
                  <path
                     d="m 279.47598,284.36217 0.0121,0.0414 -0.65049,0.18949 -0.0121,-0.0414 0.0537,-0.0156 c 0.0627,-0.0183 0.1029,-0.0498 0.12061,-0.0947 0.011,-0.0291 0.003,-0.0892 -0.0233,-0.18025 l -0.2857,-0.98078 c -0.0224,-0.0769 -0.042,-0.12622 -0.0589,-0.14802 -0.0129,-0.0165 -0.0329,-0.0281 -0.0599,-0.0348 -0.0381,-0.008 -0.075,-0.007 -0.11083,0.003 l -0.0537,0.0156 -0.0121,-0.0414 0.6505,-0.18949 0.0121,0.0414 -0.0549,0.016 c -0.062,0.0181 -0.10178,0.0495 -0.11949,0.0943 -0.0117,0.0293 -0.004,0.0895 0.0222,0.18057 l 0.28569,0.98078 c 0.0224,0.0769 0.042,0.12622 0.0589,0.14803 0.0129,0.0165 0.0333,0.028 0.0611,0.0344 0.0373,0.009 0.0739,0.008 0.10971,-0.003 z"
                     style=""
                     id="path7105" />
                  <path
                     d="m 279.98707,282.4934 0.19765,0.50996 -0.0402,0.0156 c -0.051,-0.0928 -0.10456,-0.16167 -0.16074,-0.2066 -0.0562,-0.0449 -0.12205,-0.0723 -0.19759,-0.0822 -0.0756,-0.01 -0.14667,-0.002 -0.21336,0.0239 -0.0754,0.0292 -0.1288,0.0764 -0.16026,0.14153 -0.0315,0.0651 -0.0358,0.12706 -0.013,0.18578 0.0174,0.0449 0.0489,0.0799 0.0944,0.10475 0.066,0.037 0.20103,0.068 0.40505,0.0932 0.16639,0.0206 0.28242,0.0408 0.34812,0.0608 0.0657,0.02 0.12252,0.0515 0.17049,0.0946 0.048,0.0431 0.0833,0.094 0.1061,0.15273 0.0433,0.11164 0.0372,0.22465 -0.0181,0.33905 -0.0553,0.1144 -0.15109,0.19801 -0.28737,0.25082 -0.0428,0.0166 -0.0843,0.0289 -0.12449,0.037 -0.0239,0.005 -0.0756,0.01 -0.1551,0.0145 -0.0795,0.005 -0.12872,0.0105 -0.14756,0.0178 -0.0181,0.007 -0.0303,0.018 -0.0366,0.033 -0.006,0.0149 -0.005,0.0404 0.003,0.0765 l -0.0402,0.0156 -0.19596,-0.50562 0.0402,-0.0156 c 0.0599,0.0985 0.11593,0.16789 0.16819,0.20809 0.0523,0.0402 0.11794,0.065 0.19703,0.0743 0.0791,0.009 0.15777,-0.001 0.23606,-0.0315 0.0906,-0.0351 0.15293,-0.0868 0.18694,-0.15499 0.034,-0.0682 0.0384,-0.13494 0.0131,-0.20018 -0.014,-0.0362 -0.0382,-0.069 -0.0725,-0.0982 -0.0343,-0.0292 -0.0786,-0.0517 -0.13301,-0.0673 -0.0367,-0.0108 -0.13181,-0.0271 -0.28533,-0.0489 -0.15352,-0.0218 -0.26507,-0.0434 -0.33465,-0.0648 -0.0696,-0.0214 -0.12796,-0.0521 -0.17517,-0.0922 -0.0472,-0.0401 -0.0826,-0.0906 -0.10622,-0.15144 -0.041,-0.10583 -0.0358,-0.21272 0.0158,-0.32066 0.0516,-0.10794 0.14003,-0.18622 0.26544,-0.23482 0.0783,-0.0303 0.16873,-0.0433 0.27133,-0.0389 0.0476,0.002 0.0798,3.6e-4 0.0964,-0.006 0.0188,-0.007 0.0321,-0.0189 0.0397,-0.0348 0.008,-0.0159 0.008,-0.0422 0.002,-0.0791 z"
                     style=""
                     id="path7107" />
                  <path
                     d="m 280.82788,282.94784 0.64707,-0.34792 -0.21427,-0.39851 c -0.0383,-0.0712 -0.068,-0.11572 -0.089,-0.13353 -0.0161,-0.0134 -0.0383,-0.0204 -0.0669,-0.021 -0.0383,-6e-4 -0.0738,0.008 -0.10672,0.0256 l -0.0493,0.0265 -0.0204,-0.038 0.59571,-0.3203 0.0204,0.038 -0.0493,0.0265 c -0.0329,0.0177 -0.0598,0.0423 -0.0808,0.0739 -0.016,0.0227 -0.022,0.0474 -0.0179,0.0738 0.004,0.0265 0.0245,0.074 0.0614,0.14244 l 0.48322,0.8987 c 0.0379,0.0705 0.0674,0.1147 0.0885,0.13251 0.0161,0.0134 0.038,0.0206 0.0659,0.0215 0.039,2.4e-4 0.0749,-0.008 0.10775,-0.0262 l 0.0493,-0.0265 0.0204,0.038 -0.59571,0.3203 -0.0204,-0.038 0.0493,-0.0265 c 0.0568,-0.0305 0.0892,-0.0696 0.0972,-0.11715 0.005,-0.0311 -0.0145,-0.0884 -0.0594,-0.17197 l -0.22808,-0.42419 -0.64707,0.34792 0.22808,0.42418 c 0.0379,0.0705 0.0674,0.1147 0.0885,0.13251 0.0161,0.0134 0.0383,0.0204 0.0669,0.021 0.0383,6e-4 0.0739,-0.008 0.10672,-0.0256 l 0.0503,-0.0271 0.0204,0.038 -0.59674,0.32085 -0.0204,-0.038 0.0493,-0.0265 c 0.0575,-0.0309 0.0903,-0.0702 0.0983,-0.1177 0.005,-0.0307 -0.0155,-0.0879 -0.0604,-0.17142 l -0.48322,-0.89871 c -0.0383,-0.0712 -0.068,-0.11572 -0.089,-0.13353 -0.0161,-0.0134 -0.038,-0.0206 -0.0659,-0.0215 -0.039,-2.3e-4 -0.0749,0.008 -0.10774,0.0262 l -0.0493,0.0265 -0.0204,-0.038 0.59674,-0.32086 0.0204,0.038 -0.0503,0.0271 c -0.0329,0.0177 -0.0598,0.0423 -0.0808,0.0739 -0.0153,0.0224 -0.0211,0.0469 -0.0174,0.0736 0.004,0.0267 0.024,0.0742 0.0609,0.14271 z"
                     style=""
                     id="path7109" />
                  <path
                     d="m 282.06811,281.2871 c 0.16557,-0.12129 0.35509,-0.16351 0.56856,-0.12666 0.21347,0.0369 0.38912,0.14934 0.52695,0.33749 0.14196,0.19379 0.19865,0.39945 0.17008,0.61698 -0.0286,0.21752 -0.12972,0.38992 -0.30344,0.51718 -0.17561,0.12864 -0.36886,0.17432 -0.57976,0.13703 -0.21089,-0.0373 -0.38893,-0.15502 -0.53411,-0.3532 -0.14839,-0.20257 -0.20047,-0.41836 -0.15621,-0.64737 0.0385,-0.19876 0.14111,-0.35924 0.30793,-0.48145 z m 0.0324,0.0818 c -0.11415,0.0836 -0.1747,0.19302 -0.18166,0.32822 -0.009,0.16831 0.0613,0.35406 0.21017,0.55726 0.15253,0.20821 0.31444,0.33583 0.48573,0.38286 0.13084,0.0352 0.2524,0.0117 0.36466,-0.0705 0.11978,-0.0877 0.18449,-0.20694 0.19412,-0.35759 0.01,-0.15064 -0.0593,-0.32662 -0.20677,-0.52794 -0.15988,-0.21825 -0.32207,-0.34953 -0.48655,-0.39383 -0.13147,-0.0347 -0.25803,-0.008 -0.3797,0.0816 z"
                     style=""
                     id="path7111" />
                  <path
                     d="m 283.55486,281.20257 0.31555,0.33557 c 0.0682,0.0725 0.11843,0.11006 0.1508,0.11271 0.045,0.005 0.0892,-0.0135 0.13285,-0.0545 l 0.0442,-0.0415 0.0296,0.0314 -0.49358,0.46413 -0.0296,-0.0314 0.0433,-0.0407 c 0.0487,-0.0458 0.0686,-0.0944 0.0598,-0.14583 -0.005,-0.0282 -0.0387,-0.0752 -0.10044,-0.14086 l -0.69979,-0.74421 c -0.0682,-0.0725 -0.11815,-0.11033 -0.14995,-0.1135 -0.0455,-0.004 -0.0901,0.0143 -0.1337,0.0553 l -0.0433,0.0407 -0.0296,-0.0314 0.42223,-0.39703 c 0.10308,-0.0969 0.19434,-0.16273 0.27378,-0.19741 0.0794,-0.0347 0.16324,-0.046 0.25142,-0.0339 0.0882,0.0121 0.16475,0.0526 0.22972,0.12174 0.0884,0.094 0.1293,0.19963 0.12267,0.31685 -0.007,0.11722 -0.0666,0.22908 -0.17985,0.3356 -0.0278,0.0261 -0.0596,0.0523 -0.0957,0.0787 -0.036,0.0264 -0.0761,0.0529 -0.12042,0.0796 z m -0.0455,-0.0484 c 0.0353,-0.0226 0.066,-0.0433 0.0918,-0.0623 0.0259,-0.019 0.047,-0.0362 0.0635,-0.0517 0.0589,-0.0554 0.0883,-0.12598 0.0882,-0.21178 -1.1e-4,-0.0858 -0.0342,-0.16495 -0.10242,-0.23744 -0.0469,-0.0498 -0.10059,-0.0866 -0.16119,-0.11015 -0.0606,-0.0236 -0.11957,-0.0284 -0.17692,-0.0145 -0.0574,0.0139 -0.10982,0.0432 -0.15739,0.088 -0.0289,0.0272 -0.0609,0.0674 -0.0961,0.12079 z"
                     style=""
                     id="path7113" />
                  <path
                     d="m 284.16133,279.28135 0.41486,0.35639 -0.0281,0.0327 c -0.0887,-0.0578 -0.16846,-0.0932 -0.2392,-0.10633 -0.0707,-0.0131 -0.14174,-0.006 -0.21302,0.0207 -0.0713,0.0269 -0.13023,0.0675 -0.17684,0.12174 -0.0527,0.0613 -0.0775,0.12813 -0.0745,0.2004 0.003,0.0723 0.0284,0.12892 0.0761,0.16995 0.0366,0.0314 0.0808,0.0473 0.13263,0.0478 0.0756,0.001 0.20933,-0.0349 0.40108,-0.10896 0.1564,-0.0604 0.26828,-0.0973 0.33563,-0.11063 0.0673,-0.0134 0.13233,-0.0124 0.19497,0.003 0.0626,0.0154 0.11784,0.0436 0.1656,0.0846 0.0908,0.078 0.13883,0.18051 0.14405,0.30746 0.005,0.12696 -0.0398,0.24587 -0.13504,0.35673 -0.0299,0.0348 -0.0607,0.0652 -0.0923,0.0913 -0.0186,0.0158 -0.062,0.0444 -0.12993,0.0859 -0.068,0.0415 -0.10854,0.07 -0.12171,0.0853 -0.0127,0.0147 -0.0182,0.0302 -0.0168,0.0463 0.002,0.0162 0.0143,0.0382 0.0385,0.0661 l -0.0281,0.0327 -0.41132,-0.35335 0.0281,-0.0327 c 0.0993,0.0586 0.18143,0.0933 0.24647,0.10412 0.065,0.0108 0.13465,0.002 0.2088,-0.0274 0.0742,-0.029 0.13858,-0.0754 0.1933,-0.13911 0.0633,-0.0737 0.0939,-0.14867 0.0917,-0.22486 -0.002,-0.0762 -0.0298,-0.13708 -0.0829,-0.18267 -0.0295,-0.0253 -0.0662,-0.0428 -0.11023,-0.0524 -0.044,-0.01 -0.0937,-0.008 -0.14901,0.003 -0.0374,0.008 -0.12899,0.0383 -0.27464,0.0915 -0.14564,0.0532 -0.25418,0.0868 -0.32562,0.10077 -0.0714,0.014 -0.13742,0.0144 -0.19795,0.001 -0.0605,-0.0131 -0.11557,-0.0409 -0.1651,-0.0834 -0.0861,-0.074 -0.13188,-0.17069 -0.13736,-0.29019 -0.005,-0.11949 0.0356,-0.23024 0.12325,-0.33226 0.0547,-0.0637 0.12834,-0.11779 0.22089,-0.1623 0.0431,-0.0204 0.0705,-0.0373 0.0822,-0.0509 0.0132,-0.0153 0.0194,-0.0318 0.0186,-0.0494 -7.8e-4,-0.0176 -0.0125,-0.0412 -0.0351,-0.0709 z"
                     style=""
                     id="path7115" />
                </g>
              </g>
            </g>
          </g>
        </g>
      </g>
    </g>
  </g>
</svg>
